<?xml version="1.0" encoding="UTF-8" standalone="no"?>
<svg xmlns="http://www.w3.org/2000/svg" version="1.2" baseProfile="tiny" viewBox="0.00 0.00 171.00 331.00">
    <g stroke-width="2.00" fill="none" stroke-linecap="butt">
        <path stroke="none" vector-effect="non-scaling-stroke" d="
  M 20.18 106.57
  A 0.42 0.42 0.0 0 0 20.38 106.92
  L 61.28 131.92
  A 0.42 0.42 0.0 0 1 61.28 132.64
  L 19.93 157.58
  A 0.42 0.42 0.0 0 0 19.73 157.94
  L 19.82 278.62
  A 0.42 0.42 0.0 0 0 20.03 278.98
  L 82.85 315.37
  A 0.42 0.42 0.0 0 0 83.27 315.37
  L 146.03 278.97
  A 0.42 0.42 0.0 0 0 146.24 278.61
  L 146.27 75.55
  A 0.42 0.42 0.0 0 0 146.07 75.19
  L 83.65 37.48
  A 0.42 0.42 0.0 0 0 83.21 37.48
  L 20.28 75.07
  A 0.42 0.42 0.0 0 0 20.07 75.43
  L 20.18 106.57" />
        <path fill="none" vector-effect="non-scaling-stroke" d="
  M 95.06 126.85
  A 0.46 0.46 0.0 0 0 95.76 126.46
  L 96.08 79.95
  A 0.46 0.46 0.0 0 0 95.39 79.55
  L 56.65 102.53
  A 0.46 0.46 0.0 0 0 56.64 103.32
  L 95.06 126.85" />
        <path stroke="none" vector-effect="non-scaling-stroke" d="
  M 95.87 176.86
  A 0.57 0.57 0.0 0 0 95.59 176.36
  L 71.22 162.04
  A 0.57 0.57 0.0 0 0 70.36 162.53
  L 70.23 258.10
  A 0.57 0.57 0.0 0 0 70.51 258.60
  L 94.87 272.95
  A 0.57 0.57 0.0 0 0 95.73 272.46
  L 95.87 176.86" />
    </g>
</svg>
